<svg width="3501" height="2292" xmlns="http://www.w3.org/2000/svg" xmlns:xlink="http://www.w3.org/1999/xlink" overflow="hidden"><defs><clipPath id="clip0"><rect x="449" y="100" width="3501" height="2292"/></clipPath></defs><g clip-path="url(#clip0)" transform="translate(-449 -100)"><text fill="#000000" fill-opacity="1" font-family="Verdana,Verdana_MSFontService,sans-serif" font-style="normal" font-variant="normal" font-weight="400" font-stretch="normal" font-size="83" text-anchor="start" direction="ltr" writing-mode="lr-tb" unicode-bidi="normal" text-decoration="none" transform="matrix(1 0 0 1 1997.2 1336)">Language<tspan fill="#000000" fill-opacity="1" font-family="Verdana,Verdana_MSFontService,sans-serif" font-style="normal" font-variant="normal" font-weight="400" font-stretch="normal" font-size="83" text-anchor="start" direction="ltr" writing-mode="lr-tb" unicode-bidi="normal" text-decoration="none" x="24.1588" y="-326">Libraries</tspan><tspan fill="#000000" fill-opacity="1" font-family="Verdana,Verdana_MSFontService,sans-serif" font-style="normal" font-variant="normal" font-weight="400" font-stretch="normal" font-size="83" text-anchor="start" direction="ltr" writing-mode="lr-tb" unicode-bidi="normal" text-decoration="none" x="-1189.62" y="426">Tools</tspan><tspan fill="#000000" fill-opacity="1" font-family="Verdana,Verdana_MSFontService,sans-serif" font-style="normal" font-variant="normal" font-weight="400" font-stretch="normal" font-size="83" text-anchor="start" direction="ltr" writing-mode="lr-tb" unicode-bidi="normal" text-decoration="none" x="-37.9735" y="-981">Community</tspan><tspan fill="#000000" fill-opacity="1" font-family="Verdana,Verdana_MSFontService,sans-serif" font-style="normal" font-variant="normal" font-weight="400" font-stretch="normal" font-size="83" text-anchor="start" direction="ltr" writing-mode="lr-tb" unicode-bidi="normal" text-decoration="none" x="1161.63" y="376">Working</tspan><tspan fill="#000000" fill-opacity="1" font-family="Verdana,Verdana_MSFontService,sans-serif" font-style="normal" font-variant="normal" font-weight="400" font-stretch="normal" font-size="83" text-anchor="start" direction="ltr" writing-mode="lr-tb" unicode-bidi="normal" text-decoration="none" x="1161.63" y="475">Deployments</tspan></text><path d="M1889.5 1304.5C1889.5 1201.78 2028.74 1118.5 2200.5 1118.5 2372.26 1118.5 2511.5 1201.78 2511.5 1304.5 2511.5 1407.22 2372.26 1490.5 2200.5 1490.5 2028.74 1490.5 1889.5 1407.22 1889.5 1304.5Z" stroke="#2F528F" stroke-width="4.58333" stroke-linecap="butt" stroke-linejoin="miter" stroke-miterlimit="8" stroke-opacity="1" fill="none" fill-rule="evenodd"/><path d="M1765.5 1206C1765.5 1005.8 1960.26 843.5 2200.5 843.5 2440.74 843.5 2635.5 1005.8 2635.5 1206 2635.5 1406.2 2440.74 1568.5 2200.5 1568.5 1960.26 1568.5 1765.5 1406.2 1765.5 1206Z" stroke="#2F528F" stroke-width="4.58333" stroke-linecap="butt" stroke-linejoin="miter" stroke-miterlimit="8" stroke-opacity="1" fill="none" fill-rule="evenodd"/><path d="M1212.5 853C1212.5 440.167 1654.84 105.5 2200.5 105.5 2746.16 105.5 3188.5 440.167 3188.5 853 3188.5 1265.83 2746.16 1600.5 2200.5 1600.5 1654.84 1600.5 1212.5 1265.83 1212.5 853Z" stroke="#2F528F" stroke-width="4.58333" stroke-linecap="butt" stroke-linejoin="miter" stroke-miterlimit="8" stroke-opacity="1" fill="none" fill-rule="evenodd"/><path d="M1384.5 1561C1384.5 1103.98 1958.02 733.5 2665.5 733.5 3372.98 733.5 3946.5 1103.98 3946.5 1561 3946.5 2018.02 3372.98 2388.5 2665.5 2388.5 1958.02 2388.5 1384.5 2018.02 1384.5 1561Z" stroke="#2F528F" stroke-width="4.58333" stroke-linecap="butt" stroke-linejoin="miter" stroke-miterlimit="8" stroke-opacity="1" fill="none" fill-rule="evenodd"/><path d="M454.5 1561C454.5 1103.98 1028.02 733.5 1735.5 733.5 2442.98 733.5 3016.5 1103.98 3016.5 1561 3016.5 2018.02 2442.98 2388.5 1735.5 2388.5 1028.02 2388.5 454.5 2018.02 454.5 1561Z" stroke="#2F528F" stroke-width="4.58333" stroke-linecap="butt" stroke-linejoin="miter" stroke-miterlimit="8" stroke-opacity="1" fill="none" fill-rule="evenodd"/></g></svg>