<?xml version="1.0" encoding="UTF-8" standalone="no"?>
<!DOCTYPE svg PUBLIC "-//W3C//DTD SVG 1.1//EN"
 "http://www.w3.org/Graphics/SVG/1.1/DTD/svg11.dtd">
<!-- Generated by graphviz version 2.38.0 (20140413.2041)
 -->
<!-- Title: %3 Pages: 1 -->
<svg width="829pt" height="637pt"
 viewBox="0.00 0.00 829.07 637.46" xmlns="http://www.w3.org/2000/svg" xmlns:xlink="http://www.w3.org/1999/xlink">
<g id="graph0" class="graph" transform="scale(1 1) rotate(0) translate(4 633.464)">
<title>%3</title>
<polygon fill="white" stroke="none" points="-4,4 -4,-633.464 825.074,-633.464 825.074,4 -4,4"/>
<text text-anchor="middle" x="410.537" y="-10" font-family="Times,serif" font-style="italic" font-size="20.00">Programmer migration patterns (apenwarr)</text>
<!-- c -->
<g id="node1" class="node"><title>c</title>
<ellipse fill="none" stroke="black" cx="354.477" cy="-453" rx="27" ry="18"/>
<text text-anchor="middle" x="354.477" y="-449.3" font-family="Helvetica,sans-Serif" font-size="14.00">C</text>
</g>
<!-- cpp -->
<g id="node2" class="node"><title>cpp</title>
<ellipse fill="none" stroke="black" cx="320.477" cy="-370" rx="27.8951" ry="18"/>
<text text-anchor="middle" x="320.477" y="-366.3" font-family="Helvetica,sans-Serif" font-size="14.00">C++</text>
</g>
<!-- c&#45;&gt;cpp -->
<g id="edge5" class="edge"><title>c&#45;&gt;cpp</title>
<path fill="none" stroke="black" d="M347.432,-435.217C342.797,-424.174 336.637,-409.5 331.376,-396.967"/>
<polygon fill="black" stroke="black" points="334.494,-395.351 327.396,-387.485 328.039,-398.06 334.494,-395.351"/>
</g>
<!-- python2 -->
<g id="node13" class="node"><title>python2</title>
<ellipse fill="none" stroke="black" cx="411.477" cy="-370" rx="45.4919" ry="18"/>
<text text-anchor="middle" x="411.477" y="-366.3" font-family="Helvetica,sans-Serif" font-size="14.00">Python 2</text>
</g>
<!-- c&#45;&gt;python2 -->
<g id="edge13" class="edge"><title>c&#45;&gt;python2</title>
<path fill="none" stroke="black" d="M365.467,-436.382C373.534,-424.918 384.658,-409.111 393.947,-395.911"/>
<polygon fill="black" stroke="black" points="396.843,-397.877 399.735,-387.685 391.118,-393.849 396.843,-397.877"/>
</g>
<!-- rust -->
<g id="node19" class="node"><title>rust</title>
<ellipse fill="none" stroke="red" cx="263.477" cy="-295" rx="28.6953" ry="18"/>
<text text-anchor="middle" x="263.477" y="-291.3" font-family="Helvetica,sans-Serif" font-size="14.00">Rust</text>
</g>
<!-- c&#45;&gt;rust -->
<g id="edge7" class="edge"><title>c&#45;&gt;rust</title>
<path fill="none" stroke="black" d="M335.432,-439.922C319.089,-428.534 296.217,-409.963 283.477,-388 271.974,-368.17 267.072,-342.454 264.991,-323.253"/>
<polygon fill="black" stroke="black" points="268.457,-322.715 264.082,-313.066 261.484,-323.337 268.457,-322.715"/>
</g>
<!-- java -->
<g id="node18" class="node"><title>java</title>
<ellipse fill="none" stroke="red" cx="339.477" cy="-295" rx="29.4969" ry="18"/>
<text text-anchor="middle" x="339.477" y="-291.3" font-family="Helvetica,sans-Serif" font-size="14.00">Java</text>
</g>
<!-- cpp&#45;&gt;java -->
<g id="edge8" class="edge"><title>cpp&#45;&gt;java</title>
<path fill="none" stroke="black" d="M324.883,-352.069C327.162,-343.316 329.994,-332.432 332.557,-322.588"/>
<polygon fill="black" stroke="black" points="335.962,-323.399 335.094,-312.839 329.188,-321.635 335.962,-323.399"/>
</g>
<!-- cpp&#45;&gt;rust -->
<g id="edge6" class="edge"><title>cpp&#45;&gt;rust</title>
<path fill="none" stroke="black" d="M308.388,-353.519C300.68,-343.647 290.542,-330.663 281.849,-319.53"/>
<polygon fill="black" stroke="black" points="284.461,-317.187 275.547,-311.459 278.943,-321.495 284.461,-317.187"/>
</g>
<!-- vbdotnet -->
<g id="node3" class="node"><title>vbdotnet</title>
<ellipse fill="none" stroke="black" cx="37.4767" cy="-370" rx="37.0935" ry="18"/>
<text text-anchor="middle" x="37.4767" y="-366.3" font-family="Helvetica,sans-Serif" font-size="14.00">VB.net</text>
</g>
<!-- csharp -->
<g id="node5" class="node"><title>csharp</title>
<ellipse fill="none" stroke="black" cx="128.477" cy="-295" rx="27" ry="18"/>
<text text-anchor="middle" x="128.477" y="-291.3" font-family="Helvetica,sans-Serif" font-size="14.00">C#</text>
</g>
<!-- vbdotnet&#45;&gt;csharp -->
<g id="edge3" class="edge"><title>vbdotnet&#45;&gt;csharp</title>
<path fill="none" stroke="black" d="M55.8919,-354.227C69.7389,-343.119 88.8479,-327.79 103.983,-315.648"/>
<polygon fill="black" stroke="black" points="106.314,-318.266 111.925,-309.278 101.934,-312.805 106.314,-318.266"/>
</g>
<!-- php -->
<g id="node4" class="node"><title>php</title>
<ellipse fill="none" stroke="black" cx="792.477" cy="-295" rx="28.6953" ry="18"/>
<text text-anchor="middle" x="792.477" y="-291.3" font-family="Helvetica,sans-Serif" font-size="14.00">PHP</text>
</g>
<!-- javascript -->
<g id="node20" class="node"><title>javascript</title>
<ellipse fill="none" stroke="red" cx="597.477" cy="-221" rx="51.9908" ry="18"/>
<text text-anchor="middle" x="597.477" y="-217.3" font-family="Helvetica,sans-Serif" font-size="14.00">JavaScript</text>
</g>
<!-- php&#45;&gt;javascript -->
<g id="edge26" class="edge"><title>php&#45;&gt;javascript</title>
<path fill="none" stroke="black" d="M768.672,-284.958C761.834,-282.374 754.364,-279.564 747.477,-277 711.978,-263.787 671.667,-249.02 641.781,-238.116"/>
<polygon fill="black" stroke="black" points="642.661,-234.712 632.067,-234.575 640.263,-241.288 642.661,-234.712"/>
</g>
<!-- typescript -->
<g id="node11" class="node"><title>typescript</title>
<ellipse fill="none" stroke="black" cx="516.477" cy="-147" rx="52.7911" ry="18"/>
<text text-anchor="middle" x="516.477" y="-143.3" font-family="Helvetica,sans-Serif" font-size="14.00">TypeScript</text>
</g>
<!-- csharp&#45;&gt;typescript -->
<g id="edge21" class="edge"><title>csharp&#45;&gt;typescript</title>
<path fill="none" stroke="black" d="M151.586,-285.304C214.608,-261.59 390.245,-195.5 472.689,-164.477"/>
<polygon fill="black" stroke="black" points="474.141,-167.67 482.268,-160.872 471.676,-161.119 474.141,-167.67"/>
</g>
<!-- pascal -->
<g id="node6" class="node"><title>pascal</title>
<ellipse fill="none" stroke="black" cx="209.477" cy="-453" rx="37.0935" ry="18"/>
<text text-anchor="middle" x="209.477" y="-449.3" font-family="Helvetica,sans-Serif" font-size="14.00">Pascal</text>
</g>
<!-- delphi -->
<g id="node7" class="node"><title>delphi</title>
<ellipse fill="none" stroke="black" cx="128.477" cy="-370" rx="35.9954" ry="18"/>
<text text-anchor="middle" x="128.477" y="-366.3" font-family="Helvetica,sans-Serif" font-size="14.00">Delphi</text>
</g>
<!-- pascal&#45;&gt;delphi -->
<g id="edge11" class="edge"><title>pascal&#45;&gt;delphi</title>
<path fill="none" stroke="black" d="M193.859,-436.382C181.679,-424.203 164.598,-407.121 150.948,-393.472"/>
<polygon fill="black" stroke="black" points="153.318,-390.891 143.772,-386.295 148.368,-395.841 153.318,-390.891"/>
</g>
<!-- Ada -->
<g id="node23" class="node"><title>Ada</title>
<ellipse fill="none" stroke="black" cx="209.477" cy="-370" rx="27" ry="18"/>
<text text-anchor="middle" x="209.477" y="-366.3" font-family="Helvetica,sans-Serif" font-size="14.00">Ada</text>
</g>
<!-- pascal&#45;&gt;Ada -->
<g id="edge10" class="edge"><title>pascal&#45;&gt;Ada</title>
<path fill="none" stroke="black" d="M209.477,-434.822C209.477,-424.19 209.477,-410.306 209.477,-398.204"/>
<polygon fill="black" stroke="black" points="212.977,-398.153 209.477,-388.153 205.977,-398.153 212.977,-398.153"/>
</g>
<!-- delphi&#45;&gt;csharp -->
<g id="edge12" class="edge"><title>delphi&#45;&gt;csharp</title>
<path fill="none" stroke="black" d="M128.477,-351.7C128.477,-343.245 128.477,-332.869 128.477,-323.373"/>
<polygon fill="black" stroke="black" points="131.977,-323.176 128.477,-313.176 124.977,-323.176 131.977,-323.176"/>
</g>
<!-- fortran -->
<g id="node8" class="node"><title>fortran</title>
<ellipse fill="none" stroke="black" cx="513.477" cy="-370" rx="38.9931" ry="18"/>
<text text-anchor="middle" x="513.477" y="-366.3" font-family="Helvetica,sans-Serif" font-size="14.00">Fortran</text>
</g>
<!-- python3 -->
<g id="node16" class="node"><title>python3</title>
<ellipse fill="none" stroke="red" cx="597.477" cy="-295" rx="45.4919" ry="18"/>
<text text-anchor="middle" x="597.477" y="-291.3" font-family="Helvetica,sans-Serif" font-size="14.00">Python 3</text>
</g>
<!-- fortran&#45;&gt;python3 -->
<g id="edge28" class="edge"><title>fortran&#45;&gt;python3</title>
<path fill="none" stroke="black" d="M530.882,-353.874C542.661,-343.637 558.426,-329.937 571.66,-318.436"/>
<polygon fill="black" stroke="black" points="574.262,-320.811 579.515,-311.61 569.671,-315.528 574.262,-320.811"/>
</g>
<!-- basic -->
<g id="node9" class="node"><title>basic</title>
<ellipse fill="none" stroke="black" cx="37.4767" cy="-537" rx="37.0935" ry="18"/>
<text text-anchor="middle" x="37.4767" y="-533.3" font-family="Helvetica,sans-Serif" font-size="14.00">BASIC</text>
</g>
<!-- vb -->
<g id="node10" class="node"><title>vb</title>
<ellipse fill="none" stroke="black" cx="37.4767" cy="-453" rx="37.4533" ry="26.7407"/>
<text text-anchor="middle" x="37.4767" y="-456.8" font-family="Helvetica,sans-Serif" font-size="14.00">Visual</text>
<text text-anchor="middle" x="37.4767" y="-441.8" font-family="Helvetica,sans-Serif" font-size="14.00">Basic</text>
</g>
<!-- basic&#45;&gt;vb -->
<g id="edge1" class="edge"><title>basic&#45;&gt;vb</title>
<path fill="none" stroke="black" d="M37.4767,-518.61C37.4767,-510.306 37.4767,-500.041 37.4767,-490.157"/>
<polygon fill="black" stroke="black" points="40.9768,-490.093 37.4767,-480.093 33.9768,-490.093 40.9768,-490.093"/>
</g>
<!-- vb&#45;&gt;vbdotnet -->
<g id="edge2" class="edge"><title>vb&#45;&gt;vbdotnet</title>
<path fill="none" stroke="black" d="M37.4767,-425.925C37.4767,-417.114 37.4767,-407.254 37.4767,-398.347"/>
<polygon fill="black" stroke="black" points="40.9768,-398.088 37.4767,-388.088 33.9768,-398.088 40.9768,-398.088"/>
</g>
<!-- nodejs -->
<g id="node21" class="node"><title>nodejs</title>
<ellipse fill="none" stroke="red" cx="556.477" cy="-73" rx="38.9931" ry="18"/>
<text text-anchor="middle" x="556.477" y="-69.3" font-family="Helvetica,sans-Serif" font-size="14.00">node.js</text>
</g>
<!-- typescript&#45;&gt;nodejs -->
<g id="edge23" class="edge"><title>typescript&#45;&gt;nodejs</title>
<path fill="none" stroke="black" d="M525.956,-128.937C530.788,-120.239 536.766,-109.48 542.146,-99.7948"/>
<polygon fill="black" stroke="black" points="545.268,-101.382 547.065,-90.9405 539.149,-97.9823 545.268,-101.382"/>
</g>
<!-- matlab -->
<g id="node12" class="node"><title>matlab</title>
<ellipse fill="none" stroke="black" cx="688.477" cy="-370" rx="46.2923" ry="18"/>
<text text-anchor="middle" x="688.477" y="-366.3" font-family="Helvetica,sans-Serif" font-size="14.00">MATLAB</text>
</g>
<!-- matlab&#45;&gt;python3 -->
<g id="edge29" class="edge"><title>matlab&#45;&gt;python3</title>
<path fill="none" stroke="black" d="M669.178,-353.519C656.269,-343.163 639.09,-329.383 624.785,-317.906"/>
<polygon fill="black" stroke="black" points="626.738,-314.986 616.748,-311.459 622.358,-320.447 626.738,-314.986"/>
</g>
<!-- python2&#45;&gt;python3 -->
<g id="edge15" class="edge"><title>python2&#45;&gt;python3</title>
<path fill="none" stroke="black" d="M442.609,-356.781C473.859,-344.517 522.165,-325.558 556.51,-312.078"/>
<polygon fill="black" stroke="black" points="558.213,-315.17 566.243,-308.258 555.655,-308.654 558.213,-315.17"/>
</g>
<!-- go -->
<g id="node17" class="node"><title>go</title>
<ellipse fill="none" stroke="red" cx="413.477" cy="-295" rx="27" ry="18"/>
<text text-anchor="middle" x="413.477" y="-291.3" font-family="Helvetica,sans-Serif" font-size="14.00">Go</text>
</g>
<!-- python2&#45;&gt;go -->
<g id="edge14" class="edge"><title>python2&#45;&gt;go</title>
<path fill="none" stroke="black" d="M411.951,-351.7C412.182,-343.245 412.467,-332.869 412.727,-323.373"/>
<polygon fill="black" stroke="black" points="416.231,-323.268 413.006,-313.176 409.233,-323.076 416.231,-323.268"/>
</g>
<!-- perl -->
<g id="node14" class="node"><title>perl</title>
<ellipse fill="none" stroke="black" cx="762.477" cy="-453" rx="27" ry="18"/>
<text text-anchor="middle" x="762.477" y="-449.3" font-family="Helvetica,sans-Serif" font-size="14.00">Perl</text>
</g>
<!-- perl&#45;&gt;php -->
<g id="edge25" class="edge"><title>perl&#45;&gt;php</title>
<path fill="none" stroke="black" d="M766.421,-434.928C769.343,-422.06 773.345,-403.96 776.477,-388 780.757,-366.19 785.041,-341.356 788.098,-322.991"/>
<polygon fill="black" stroke="black" points="791.572,-323.433 789.746,-312.997 784.665,-322.294 791.572,-323.433"/>
</g>
<!-- perl&#45;&gt;python2 -->
<g id="edge24" class="edge"><title>perl&#45;&gt;python2</title>
<path fill="none" stroke="black" d="M736.673,-446.761C674.432,-434.071 517.361,-401.726 465.477,-388 462.096,-387.106 458.612,-386.132 455.119,-385.117"/>
<polygon fill="black" stroke="black" points="455.911,-381.701 445.328,-382.184 453.903,-388.407 455.911,-381.701"/>
</g>
<!-- ruby -->
<g id="node15" class="node"><title>ruby</title>
<ellipse fill="none" stroke="black" cx="707.477" cy="-295" rx="31.3957" ry="18"/>
<text text-anchor="middle" x="707.477" y="-291.3" font-family="Helvetica,sans-Serif" font-size="14.00">Ruby</text>
</g>
<!-- perl&#45;&gt;ruby -->
<g id="edge18" class="edge"><title>perl&#45;&gt;ruby</title>
<path fill="none" stroke="black" d="M761.219,-434.813C759.278,-414.435 754.542,-379.74 743.477,-352 739.018,-340.822 732.23,-329.472 725.746,-319.94"/>
<polygon fill="black" stroke="black" points="728.587,-317.895 719.952,-311.754 722.873,-321.939 728.587,-317.895"/>
</g>
<!-- ruby&#45;&gt;javascript -->
<g id="edge19" class="edge"><title>ruby&#45;&gt;javascript</title>
<path fill="none" stroke="black" d="M687.556,-280.961C671.308,-270.326 648.05,-255.103 629.237,-242.789"/>
<polygon fill="black" stroke="black" points="630.963,-239.735 620.679,-237.187 627.129,-245.592 630.963,-239.735"/>
</g>
<!-- python3&#45;&gt;javascript -->
<g id="edge33" class="edge"><title>python3&#45;&gt;javascript</title>
<path fill="none" stroke="black" d="M591.637,-276.937C590.752,-268.598 590.512,-258.364 590.918,-248.998"/>
<polygon fill="black" stroke="black" points="594.415,-249.168 591.65,-238.941 587.433,-248.66 594.415,-249.168"/>
</g>
<!-- javascript&#45;&gt;typescript -->
<g id="edge22" class="edge"><title>javascript&#45;&gt;typescript</title>
<path fill="none" stroke="black" d="M579.5,-204.021C568.489,-194.233 554.221,-181.55 542.046,-170.728"/>
<polygon fill="black" stroke="black" points="544.202,-167.962 534.403,-163.934 539.552,-173.194 544.202,-167.962"/>
</g>
<!-- javascript&#45;&gt;python3 -->
<g id="edge32" class="edge"><title>javascript&#45;&gt;python3</title>
<path fill="none" stroke="black" d="M603.304,-238.941C604.195,-247.261 604.441,-257.49 604.041,-266.864"/>
<polygon fill="black" stroke="black" points="600.543,-266.712 603.317,-276.937 607.525,-267.214 600.543,-266.712"/>
</g>
<!-- javascript&#45;&gt;nodejs -->
<g id="edge20" class="edge"><title>javascript&#45;&gt;nodejs</title>
<path fill="none" stroke="black" d="M594.842,-203.007C591.772,-184.559 586.126,-154.339 578.477,-129 575.626,-119.558 571.824,-109.471 568.183,-100.548"/>
<polygon fill="black" stroke="black" points="571.299,-98.9287 564.2,-91.0641 564.845,-101.639 571.299,-98.9287"/>
</g>
<!-- asm -->
<g id="node22" class="node"><title>asm</title>
<ellipse fill="none" stroke="black" cx="354.477" cy="-537" rx="27.8951" ry="18"/>
<text text-anchor="middle" x="354.477" y="-533.3" font-family="Helvetica,sans-Serif" font-size="14.00">asm</text>
</g>
<!-- asm&#45;&gt;c -->
<g id="edge4" class="edge"><title>asm&#45;&gt;c</title>
<path fill="none" stroke="black" d="M354.477,-518.61C354.477,-507.774 354.477,-493.601 354.477,-481.291"/>
<polygon fill="black" stroke="black" points="357.977,-481.084 354.477,-471.084 350.977,-481.084 357.977,-481.084"/>
</g>
<!-- asm&#45;&gt;pascal -->
<g id="edge9" class="edge"><title>asm&#45;&gt;pascal</title>
<path fill="none" stroke="black" d="M334.009,-524.425C310.023,-510.86 269.975,-488.213 241.783,-472.27"/>
<polygon fill="black" stroke="black" points="243.144,-469.019 232.717,-467.143 239.698,-475.112 243.144,-469.019"/>
</g>
<!-- asm&#45;&gt;fortran -->
<g id="edge27" class="edge"><title>asm&#45;&gt;fortran</title>
<path fill="none" stroke="black" d="M368.587,-521.357C396.285,-492.614 457.961,-428.611 491.211,-394.106"/>
<polygon fill="black" stroke="black" points="493.821,-396.441 498.24,-386.812 488.781,-391.584 493.821,-396.441"/>
</g>
<!-- sh -->
<g id="node24" class="node"><title>sh</title>
<ellipse fill="none" stroke="black" cx="762.477" cy="-611" rx="27" ry="18"/>
<text text-anchor="middle" x="762.477" y="-607.3" font-family="Helvetica,sans-Serif" font-size="14.00">sh</text>
</g>
<!-- awk -->
<g id="node25" class="node"><title>awk</title>
<ellipse fill="none" stroke="black" cx="762.477" cy="-537" rx="27" ry="18"/>
<text text-anchor="middle" x="762.477" y="-533.3" font-family="Helvetica,sans-Serif" font-size="14.00">awk</text>
</g>
<!-- sh&#45;&gt;awk -->
<g id="edge16" class="edge"><title>sh&#45;&gt;awk</title>
<path fill="none" stroke="black" d="M762.477,-592.937C762.477,-584.807 762.477,-574.876 762.477,-565.705"/>
<polygon fill="black" stroke="black" points="765.977,-565.441 762.477,-555.441 758.977,-565.441 765.977,-565.441"/>
</g>
<!-- awk&#45;&gt;perl -->
<g id="edge17" class="edge"><title>awk&#45;&gt;perl</title>
<path fill="none" stroke="black" d="M762.477,-518.61C762.477,-507.774 762.477,-493.601 762.477,-481.291"/>
<polygon fill="black" stroke="black" points="765.977,-481.084 762.477,-471.084 758.977,-481.084 765.977,-481.084"/>
</g>
<!-- S -->
<g id="node26" class="node"><title>S</title>
<ellipse fill="none" stroke="black" cx="597.477" cy="-453" rx="27" ry="18"/>
<text text-anchor="middle" x="597.477" y="-449.3" font-family="Helvetica,sans-Serif" font-size="14.00">S</text>
</g>
<!-- R -->
<g id="node27" class="node"><title>R</title>
<ellipse fill="none" stroke="black" cx="597.477" cy="-370" rx="27" ry="18"/>
<text text-anchor="middle" x="597.477" y="-366.3" font-family="Helvetica,sans-Serif" font-size="14.00">R</text>
</g>
<!-- S&#45;&gt;R -->
<g id="edge30" class="edge"><title>S&#45;&gt;R</title>
<path fill="none" stroke="black" d="M597.477,-434.822C597.477,-424.19 597.477,-410.306 597.477,-398.204"/>
<polygon fill="black" stroke="black" points="600.977,-398.153 597.477,-388.153 593.977,-398.153 600.977,-398.153"/>
</g>
<!-- R&#45;&gt;python3 -->
<g id="edge31" class="edge"><title>R&#45;&gt;python3</title>
<path fill="none" stroke="black" d="M597.477,-351.7C597.477,-343.245 597.477,-332.869 597.477,-323.373"/>
<polygon fill="black" stroke="black" points="600.977,-323.176 597.477,-313.176 593.977,-323.176 600.977,-323.176"/>
</g>
</g>
</svg>
